<svg width="170" height="49" viewBox="0 0 170 49" fill="none" xmlns="http://www.w3.org/2000/svg">
<path fill-rule="evenodd" clip-rule="evenodd" d="M18.4108 8.09399V21.8876H5.92764V8.09399H0V41.0182H5.92764V27.6746H18.4108V41.0182H24.3378V8.09399H18.4108Z" fill="#33475B"/>
<path fill-rule="evenodd" clip-rule="evenodd" d="M43.304 30.3769C43.304 33.119 41.1031 35.3503 38.4014 35.3503C35.6984 35.3503 33.4988 33.119 33.4988 30.3769V16.2749H27.8848V30.3769C27.8848 36.2598 32.6031 41.0457 38.4014 41.0457C44.1984 41.0457 48.9155 36.2598 48.9155 30.3769V16.2749H43.304V30.3769Z" fill="#33475B"/>
<path fill-rule="evenodd" clip-rule="evenodd" d="M84.9568 17.7269C84.9568 14.8356 86.8428 13.9193 88.9082 13.9193C90.5702 13.9193 92.7704 15.2027 94.2055 16.7629L97.8866 12.3603C96.0476 9.83796 92.3207 8.09448 89.2669 8.09448C83.1599 8.09448 78.7595 11.7183 78.7595 17.7269C78.7595 28.8719 92.1865 25.3391 92.1865 31.5788C92.1865 33.503 90.3457 35.2013 88.2358 35.2013C84.9123 35.2013 83.8335 33.5501 82.3075 31.8072L78.2207 36.1176C80.8261 39.3742 84.0587 41.0267 87.9203 41.0267C93.7131 41.0267 98.3832 37.3571 98.3832 31.6227C98.3832 19.2395 84.9568 23.0929 84.9568 17.7269Z" fill="#33475B"/>
<path fill-rule="evenodd" clip-rule="evenodd" d="M168.022 35.7589C164.701 35.7589 163.759 34.3015 163.759 32.0683V22.1808H168.921V17.1695H163.759V10.5615L158.057 13.1588V33.2985C158.057 38.4478 161.558 41.0457 166.361 41.0457C167.08 41.0457 168.068 40.9986 168.607 40.8637L170 35.6692C169.371 35.7131 168.653 35.7589 168.022 35.7589Z" fill="#33475B"/>
<path fill-rule="evenodd" clip-rule="evenodd" d="M64.6674 35.295C61.1401 35.295 58.2803 32.3932 58.2803 28.814C58.2803 25.2348 61.1401 22.3329 64.6674 22.3329C68.1947 22.3329 71.0545 25.2348 71.0545 28.814C71.0545 32.3932 68.1947 35.295 64.6674 35.295ZM64.7028 16.44C61.9181 16.44 59.9753 17.2604 58.0979 19.1295V8.29102H52.4668V28.3781C52.4668 35.8962 57.8233 41.0455 63.8425 41.0455C70.5334 41.0455 76.3964 35.8046 76.3964 28.7434C76.3964 21.7714 70.9898 16.44 64.7028 16.44Z" fill="#33475B"/>
<mask id="mask0_77_3077" style="mask-type:alpha" maskUnits="userSpaceOnUse" x="101" y="16" width="25" height="33">
<path d="M125.838 48.8991H101.908V16.1443H125.838V48.8991Z" fill="white"/>
</mask>
<g mask="url(#mask0_77_3077)">
<path fill-rule="evenodd" clip-rule="evenodd" d="M114.109 34.8569C110.582 34.8569 107.722 31.955 107.722 28.3758C107.722 24.7966 110.582 21.8948 114.109 21.8948C117.636 21.8948 120.496 24.7966 120.496 28.3758C120.496 31.955 117.636 34.8569 114.109 34.8569ZM125.838 28.4464C125.838 21.3852 119.975 16.1443 113.284 16.1443C107.265 16.1443 101.908 21.2936 101.908 28.8117V48.8994H107.539V38.0603C109.417 39.9301 111.359 40.7504 114.144 40.7504C120.431 40.7504 125.838 35.4185 125.838 28.4464Z" fill="#33475B"/>
</g>
<mask id="mask1_77_3077" style="mask-type:alpha" maskUnits="userSpaceOnUse" x="109" y="0" width="46" height="49">
<path d="M109.193 0H154.533V48.2114H109.193V0Z" fill="white"/>
</mask>
<g mask="url(#mask1_77_3077)">
<path fill-rule="evenodd" clip-rule="evenodd" d="M142.131 34.7412C138.619 34.7412 135.772 31.8523 135.772 28.2892C135.772 24.7255 138.619 21.8367 142.131 21.8367C145.643 21.8367 148.49 24.7255 148.49 28.2892C148.49 31.8523 145.643 34.7412 142.131 34.7412ZM144.034 15.867V10.127C145.511 9.41935 146.545 7.90372 146.545 6.14477V6.01227C146.545 3.58466 144.588 1.59849 142.195 1.59849H142.065C139.673 1.59849 137.716 3.58466 137.716 6.01227V6.14477C137.716 7.90372 138.75 9.41997 140.226 10.1276V15.867C138.028 16.2118 136.019 17.1319 134.363 18.4859L118.831 6.22649C118.934 5.82715 119.006 5.41605 119.006 4.9839C119.009 2.23495 116.816 0.00298559 114.106 -0.000729197C111.397 -0.00382485 109.196 2.22195 109.193 4.97151C109.19 7.72108 111.383 9.95304 114.094 9.95614C114.976 9.95738 115.794 9.70292 116.51 9.28934L131.788 21.3494C130.489 23.3393 129.727 25.7229 129.727 28.2892C129.727 30.9756 130.564 33.4608 131.977 35.5046L127.331 40.2193C126.964 40.1072 126.583 40.0292 126.179 40.0292C123.953 40.0292 122.148 41.8606 122.148 44.1198C122.148 46.3796 123.953 48.211 126.179 48.211C128.406 48.211 130.211 46.3796 130.211 44.1198C130.211 43.7112 130.134 43.3242 130.024 42.9515L134.62 38.2882C136.706 39.9035 139.304 40.8743 142.131 40.8743C148.981 40.8743 154.533 35.2396 154.533 28.2892C154.533 21.997 149.978 16.7988 144.034 15.867Z" fill="#FF7A59"/>
</g>
</svg>
